<svg width="99" height="72" viewBox="0 0 99 72" fill="none" xmlns="http://www.w3.org/2000/svg">
<path d="M81.7197 0H17.2807C7.75198 0 0 7.75434 0 17.2854V54.1378C0 63.6689 7.75198 71.4228 17.2807 71.4228H81.7202C91.2485 71.4228 99.0005 63.6689 99.0005 54.1378V17.2854C99 7.75434 91.248 0 81.7197 0ZM91.9175 54.1374C91.9175 59.7632 87.3427 64.3399 81.7197 64.3399H17.2807C11.6573 64.3399 7.08246 59.7632 7.08246 54.1374V17.285C7.08246 11.6591 11.6573 7.08246 17.2807 7.08246H81.7202C87.3432 7.08246 91.918 11.6591 91.918 17.285V54.1374H91.9175Z" fill="white"/>
<path d="M68.5086 32.7526L42.2582 15.4478C41.1708 14.7305 39.7774 14.6692 38.6301 15.2863C37.4832 15.9039 36.7679 17.1018 36.7679 18.4045V53.0183C36.7679 54.321 37.4832 55.5184 38.6301 56.1365C39.1556 56.4198 39.7331 56.5595 40.3086 56.5595C40.9895 56.5595 41.6689 56.3636 42.2582 55.9745L68.5086 38.6655C69.5025 38.0101 70.1007 36.8996 70.1007 35.7088C70.1007 34.5185 69.5025 33.4079 68.5086 32.7526ZM43.8503 46.4415V24.9803L60.1263 35.7093L43.8503 46.4415Z" fill="white"/>
</svg>
