<?xml version="1.0" encoding="UTF-8"?><!DOCTYPE svg PUBLIC "-//W3C//DTD SVG 1.1//EN" "http://www.w3.org/Graphics/SVG/1.1/DTD/svg11.dtd"><svg xmlns="http://www.w3.org/2000/svg" xmlns:xlink="http://www.w3.org/1999/xlink"><symbol id="half-star" viewBox="0 0 13 12"><path d="M10.62 11.88L6.71 9.84l-3.74 2.04.68-4.25L.59 4.57l4.25-.68L6.88.15l1.87 3.74 4.25.68-3.06 3.06.68 4.25z" fill="#828282"/><path d="M6.71.15L4.84 3.89l-4.25.68 3.06 3.06-.68 4.25 3.74-2.04v.17V.15z" fill="#FEC601"/></symbol><symbol id="play" viewBox="0 0 99 72"><path d="M81.72 0H17.28C7.753 0 0 7.754 0 17.285v36.853c0 9.53 7.752 17.285 17.28 17.285h64.44c9.529 0 17.28-7.754 17.28-17.285V17.285C99 7.755 91.249 0 81.72 0zm10.198 54.137c0 5.626-4.575 10.203-10.198 10.203H17.28c-5.623 0-10.198-4.577-10.198-10.203V17.285c0-5.626 4.575-10.203 10.199-10.203h64.44c5.622 0 10.197 4.577 10.197 10.203v36.852z" fill="#fff"/><path d="M68.509 32.753l-26.25-17.305a3.542 3.542 0 0 0-5.491 2.956v34.614a3.542 3.542 0 0 0 5.49 2.956l26.25-17.308a3.541 3.541 0 0 0 0-5.913zM43.85 46.44v-21.46l16.276 10.728L43.85 46.441z" fill="#fff"/></symbol><symbol id="star" viewBox="0 0 14 12"><path d="M10.75 11.88L7.01 9.84l-3.74 2.04.51-4.25L.89 4.57l4.25-.68L7.01.15l2.04 3.74 4.08.68-2.89 3.06.51 4.25z"/></symbol></svg>